<svg xmlns="http://www.w3.org/2000/svg" xmlns:xlink="http://www.w3.org/1999/xlink" data-name="Layer 1" viewBox="0 0 500 500" id="account-login-security"><defs><linearGradient id="a" x1="87.26" x2="324.99" y1="258.32" y2="258.32" gradientUnits="userSpaceOnUse"><stop offset="0" stop-color="#87b1de"></stop><stop offset=".64" stop-color="#73a4cd"></stop></linearGradient><linearGradient id="b" x1="273.75" x2="416.09" y1="257.67" y2="285.23" gradientUnits="userSpaceOnUse"><stop offset="0" stop-color="#21295d"></stop><stop offset="1" stop-color="#5078ba"></stop></linearGradient><linearGradient id="c" x1="341.51" x2="343.86" y1="296.01" y2="269.06" gradientUnits="userSpaceOnUse"><stop offset="0" stop-color="#f7fbff"></stop><stop offset="1" stop-color="#c4dbe9"></stop></linearGradient><linearGradient id="d" x1="314.72" x2="369.82" y1="251.92" y2="251.92" gradientUnits="userSpaceOnUse"><stop offset="0" stop-color="#f7fbff"></stop><stop offset="1" stop-color="#e9f3fb"></stop></linearGradient><linearGradient id="e" x1="349.78" x2="342.87" y1="389.47" y2="287" gradientUnits="userSpaceOnUse"><stop offset="0" stop-color="#a1c3e7"></stop><stop offset=".03" stop-color="#aecbea"></stop><stop offset=".08" stop-color="#c4d9f0"></stop><stop offset=".14" stop-color="#d5e3f4"></stop><stop offset=".22" stop-color="#e0ebf7"></stop><stop offset=".33" stop-color="#e7eff9"></stop><stop offset=".64" stop-color="#e9f0f9"></stop></linearGradient><linearGradient id="f" x1="323.42" x2="360.78" y1="251.92" y2="251.92" gradientUnits="userSpaceOnUse"><stop offset="0" stop-color="#f7fbff" stop-opacity="0"></stop><stop offset=".02" stop-color="#f5f9fe" stop-opacity=".04"></stop><stop offset=".17" stop-color="#e9eef7" stop-opacity=".29"></stop><stop offset=".32" stop-color="#dee4f1" stop-opacity=".51"></stop><stop offset=".47" stop-color="#d5dced" stop-opacity=".68"></stop><stop offset=".61" stop-color="#cfd6e9" stop-opacity=".82"></stop><stop offset=".75" stop-color="#cad2e6" stop-opacity=".92"></stop><stop offset=".88" stop-color="#c7cfe5" stop-opacity=".98"></stop><stop offset="1" stop-color="#c6cee4"></stop></linearGradient><linearGradient id="g" x1="179.38" x2="185.95" y1="278.2" y2="278.2" xlink:href="#a"></linearGradient><linearGradient id="h" x1="189.63" x2="196.2" y1="278.2" y2="278.2" xlink:href="#a"></linearGradient><linearGradient id="i" x1="199.53" x2="206.1" y1="278.2" y2="278.2" xlink:href="#a"></linearGradient><linearGradient id="j" x1="209.36" x2="215.93" y1="278.2" y2="278.2" xlink:href="#a"></linearGradient><linearGradient id="k" x1="219.26" x2="225.83" y1="278.2" y2="278.2" xlink:href="#a"></linearGradient><linearGradient id="l" x1="357.78" x2="321.6" y1="215.28" y2="364.12" gradientUnits="userSpaceOnUse"><stop offset=".16" stop-color="#fff" stop-opacity="0"></stop><stop offset=".24" stop-color="#fff" stop-opacity=".05"></stop><stop offset=".4" stop-color="#fff" stop-opacity=".17"></stop><stop offset=".61" stop-color="#fff" stop-opacity=".37"></stop><stop offset=".83" stop-color="#fff" stop-opacity=".6"></stop></linearGradient><linearGradient id="m" x1="295.18" x2="378.29" y1="347" y2="347" gradientUnits="userSpaceOnUse"><stop offset="0" stop-color="#97bee5"></stop><stop offset="1" stop-color="#aac8e9"></stop></linearGradient><linearGradient id="n" x1="347.04" x2="423.22" y1="359.31" y2="359.31" gradientUnits="userSpaceOnUse"><stop offset="0" stop-color="#fff"></stop><stop offset="1" stop-color="#e9f3fb"></stop></linearGradient><linearGradient id="o" x1="258.53" x2="334.71" y1="363.62" y2="363.62" gradientUnits="userSpaceOnUse"><stop offset="0" stop-color="#e9f3fb"></stop><stop offset="1" stop-color="#fff"></stop></linearGradient><linearGradient id="p" x1="191.55" x2="295.73" y1="353.03" y2="353.03" gradientUnits="userSpaceOnUse"><stop offset="0" stop-color="#273778"></stop><stop offset="1" stop-color="#21295d"></stop></linearGradient></defs><path fill="#e9f3fb" d="M35.32 275.4H162.68s-.35-23-17.63-20.15c0 0 3.6-30.22-25.54-33.82s-32.38 16.19-32.38 16.19c-9.66-9-22.37-9.66-28.79-4A17.79 17.79 0 0053 247.34a18.47 18.47 0 003.59 10.07S38.55 258.13 35.32 275.4zM405.58 309.5h81.07c1.08-6.18-2-11.3-5.88-12.22-3-.7-5.71 1.23-6.44 1.78.15-.56 3-12.13-4.53-19.34a20.78 20.78 0 00-10.63-4.57c-18.55-2.29-20.61 10.31-20.61 10.31-6.15-5.72-14.24-6.16-18.32-2.52a11.3 11.3 0 00-3.44 8.7 11.75 11.75 0 002.29 6.41S407.64 298.51 405.58 309.5zM271.37 214.52h74.79s-.22-13.52-10.36-11.83c0 0 2.12-17.75-15-19.86s-19 9.5-19 9.5c-5.67-5.26-13.13-5.67-16.9-2.32a10.42 10.42 0 00-3.17 8 10.81 10.81 0 002.12 5.91S273.27 204.38 271.37 214.52zM111.6 169.69h-11l4.3-1.35a3.44 3.44 0 012.13 0z"></path><path fill="#e9f3fb" d="M119.15,169.69h-11l4.3-1.35a3.41,3.41,0,0,1,2.12,0Z"></path><path fill="#e9f3fb" d="M126.42,169.69h-11l4.3-1.35a3.44,3.44,0,0,1,2.13,0Z"></path><path fill="url(#a)" d="M324.64,346a11.41,11.41,0,0,1-3.39,5.55,13.73,13.73,0,0,1-4,2.29,14,14,0,0,1-4.58.79H137.8a13.24,13.24,0,0,1-12.93-10.4L87.37,173a7.8,7.8,0,0,1,.21-3.58c1.31-4.17,6.49-7,13.06-7.37a5.68,5.68,0,0,0-3.72,6.61L97,169l2.73,12.49,34.92,159.43a8.18,8.18,0,0,0,8,6.44H318a6.72,6.72,0,0,0,6.62-5.52h.27A11.58,11.58,0,0,1,324.64,346Z"></path><path fill="#d9e6f5" d="M287.5,169.78a10.29,10.29,0,0,0-10-8.08h-175a5.85,5.85,0,0,0-1.83.3,5.68,5.68,0,0,0-3.72,6.61L97,169l2.73,12.49H290.06ZM106,174.39a2.76,2.76,0,0,1-.85-5.39,2.61,2.61,0,0,1,.85-.14,2.83,2.83,0,0,1,.87.14,2.76,2.76,0,0,1-.87,5.39Zm7.56,0a2.76,2.76,0,0,1-.86-5.39,2.72,2.72,0,0,1,.86-.14,2.83,2.83,0,0,1,.87.14,2.76,2.76,0,0,1-.87,5.39Zm7.28,0A2.76,2.76,0,0,1,120,169a2.61,2.61,0,0,1,.85-.14,2.83,2.83,0,0,1,.87.14,2.76,2.76,0,0,1-.87,5.39Z"></path><path fill="#fff" d="M324.6,339.19l-34.54-157.7H99.73l34.92,159.43a8.18,8.18,0,0,0,8,6.44H318a6.72,6.72,0,0,0,6.57-8.17Zm-114-107.65c-4.94,1-10.25-4.93-11.85-13.18s1.08-15.7,6-16.66,10.24,4.93,11.85,13.17S215.51,230.58,210.58,231.54Z"></path><path fill="#fff" d="M210.58 231.54c-4.94 1-10.25-4.93-11.85-13.18s1.08-15.7 6-16.66 10.24 4.93 11.85 13.17S215.51 230.58 210.58 231.54zM108.76 171.62a2.77 2.77 0 11-5.53 0 2.74 2.74 0 011.91-2.62h1.72A2.75 2.75 0 01108.76 171.62zM116.32 171.62a2.77 2.77 0 11-5.53 0 2.74 2.74 0 011.9-2.62h1.73A2.75 2.75 0 01116.32 171.62zM123.6 171.62A2.77 2.77 0 11120 169h1.72A2.75 2.75 0 01123.6 171.62z"></path><path fill="url(#b)" d="M288.88,247a22.33,22.33,0,0,1-3.23-23.48c5-10.92,16.84-12.6,17.54-12.68a37.51,37.51,0,0,1,29.95-23.75c15.2-2,28.17,5.75,35.08,14.84a36.47,36.47,0,0,1,5.94,11.87c3,.58,14.56,3.19,21.86,13.77,7.82,11.34,7.54,27.27-.81,40.2,6.33,5.33,14.73,14.41,16.73,27C416.26,322,388.69,354,356.35,356c-23.61,1.46-46.92-13.23-58.83-37-1.22-.43-21.95-8-26.72-29.15C267.18,273.74,274.35,256.53,288.88,247Z"></path><path fill="url(#c)" d="M330.71,272l-3.24,41.92a20.6,20.6,0,0,0,9.22,4.11c8.4,1.41,14.81-3.12,16.15-4.11l-2.52-48.75Z"></path><path fill="url(#d)" d="M367,251a4.38,4.38,0,0,1-3.24.14c-.39,3.55-2,13.89-10.39,21.32C351,274.6,345.8,279.17,339,279l-.7,0a17.05,17.05,0,0,1-6.35-1.89c-9.45-4.46-13.4-13.89-14.44-16.32a36.47,36.47,0,0,1-2.69-16.33A68.19,68.19,0,0,0,332.46,241c.8-.26,1.61-.55,2.43-.85a68.72,68.72,0,0,0,23.75-15.25,17,17,0,0,0,1.07,10.25,16.47,16.47,0,0,0,3.52,5c2.68-1.54,4-1,4.46-.82C370.68,240.84,370.58,249.23,367,251Z"></path><path fill="url(#e)" d="M422.1,384.6l-12.6-.09h-.84c-4.36,0-8.71-.06-13.07-.11h-.51l-124.81-.88a101.83,101.83,0,0,1,4.5-42.27c.56-1.73,12.84-37.78,32.92-44.8,2-.69,14.74-4.85,14.74-4.85l.36-3.25h11.52l.16,3.18L335.74,315l10.95-23.5,1.29-2.76h9.18v2.71s23,1.25,34.36,14.56,31.85,48.94,34.36,57.57S430,383.34,422.1,384.6Z"></path><path fill="#a1c3e7" d="M408.66,384.51c-4.36,0-8.71-.06-13.07-.11h-.51c-.54-1.28-1.13-2.67-1.8-4.12-.93-2.08-8.38-18.36-10.92-17.54-.3.09-.66.47-.81,1.79.45,1.89.89,3.76,1.35,5.65a4.16,4.16,0,0,1-4,5.07l-67,.64a3.24,3.24,0,0,1-3.25-2.84l-1.09-9-7-.9-7.91,7.92L286,364.41l11.7-10.25,73.95,3.06c-.5-.14-1-.29-1.54-.41,1.43-2.47,2.86-5,4.31-7.42,4,.93,7.92,1.89,11.86,2.82Q397.48,368.37,408.66,384.51Z" opacity=".35"></path><path fill="#e9f3fb" d="M209.51 232.34a7.77 7.77 0 01-4.32-1.44c-3.41-2.3-6.08-6.94-7.14-12.41a21.91 21.91 0 01.58-11.42c1.22-3.39 3.35-5.53 6-6 5.3-1 11 5.12 12.66 13.72a21.94 21.94 0 01-.58 11.43c-1.22 3.39-3.34 5.54-6 6.05h0A6.11 6.11 0 01209.51 232.34zm-3.68-30.06a5 5 0 00-1 .09c-2.14.42-3.9 2.26-4.95 5.17a20.52 20.52 0 00-.52 10.69c1 5 3.49 9.46 6.55 11.52a6 6 0 004.48 1.12h0c2.15-.42 3.9-2.26 4.95-5.17a20.45 20.45 0 00.52-10.7C214.48 207.7 210.09 202.28 205.83 202.28zM260.4 258H162.27a2.16 2.16 0 01-2.09-1.66l-2.5-10.63a2.15 2.15 0 012.1-2.64H257.9a2.15 2.15 0 012.1 1.66l2.49 10.63A2.14 2.14 0 01260.4 258zM266.47 285.92H168.35a2.15 2.15 0 01-2.1-1.65l-2.49-10.64a2.14 2.14 0 012.09-2.64H264a2.16 2.16 0 012.1 1.66l2.5 10.63A2.15 2.15 0 01266.47 285.92z"></path><path fill="#e9f3fb" d="M210.58 231.54c-4.94 1-10.25-4.93-11.85-13.18s1.08-15.7 6-16.66 10.24 4.93 11.85 13.17S215.52 230.58 210.58 231.54zM41.36 321.47h61.31s-.17-11.09-8.49-9.7c0 0 1.73-14.55-12.29-16.28s-15.59 7.79-15.59 7.79c-4.65-4.32-10.77-4.65-13.85-1.9a8.52 8.52 0 00-2.6 6.58 8.85 8.85 0 001.73 4.85S42.92 313.15 41.36 321.47zM405.6 213.8h39.83s-.11-7.2-5.51-6.3c0 0 1.12-9.45-8-10.58S421.81 202 421.81 202c-3-2.8-7-3-9-1.23a5.52 5.52 0 00-1.69 4.27 5.83 5.83 0 001.12 3.15S406.62 208.4 405.6 213.8z"></path><path fill="url(#f)" d="M367,251a4.38,4.38,0,0,1-3.24.14c-.39,3.55-2,13.89-10.39,21.32C351,274.6,345.8,279.17,339,279a7.17,7.17,0,0,0,1.09-4.55c-.47-3.36-3.84-4.84-3.31-6.34.61-1.7,5.28-.74,5.74-2.29.36-1.24-2.2-3.21-3.71-4.05a25.29,25.29,0,0,0-4.15-1.75c-1.32-.43-1.49-.37-1.71-.65-1-1.21,1.32-3.39,2-7.79a12.19,12.19,0,0,0,.07-4.32c-.38-2.14-1.22-3.08-2.16-5.19,0,0-.16-.37-.41-1.1.8-.26,1.61-.55,2.43-.85a68.72,68.72,0,0,0,23.75-15.25,17,17,0,0,0,1.07,10.25,16.47,16.47,0,0,0,3.52,5c2.68-1.54,4-1,4.46-.82C370.68,240.84,370.58,249.23,367,251Z"></path><path fill="#82a5d6" d="M364.14,242.7a2.67,2.67,0,0,1,1-1.08,2.32,2.32,0,0,1,2.16-.13c1.59,1,1,6.35-1.12,7a1.82,1.82,0,0,1-1.4-.18C363.21,247.47,363.18,244.46,364.14,242.7Z"></path><path fill="#4f95d0" d="M350.59 256A11.4 11.4 0 11362 244.64 11.4 11.4 0 01350.59 256zm0-21.41a10 10 0 1010 10A10 10 0 00350.59 234.62zM323.61 256A11.4 11.4 0 11335 244.64 11.41 11.41 0 01323.61 256zm0-21.41a10 10 0 1010 10A10 10 0 00323.61 234.62z"></path><rect width="5.13" height="1.38" x="334.56" y="243.99" fill="#4f95d0"></rect><polygon fill="#a1c3e7" points="334.31 288.35 334.47 291.53 322.43 291.6 322.79 288.35 334.31 288.35" opacity=".35"></polygon><polygon fill="#a1c3e7" points="357.16 288.71 357.16 291.42 346.69 291.47 347.98 288.71 357.16 288.71" opacity=".35"></polygon><path fill="#a1c3e7" d="M348,288.71c-2.75,4.78-4.86,8.73-6.3,11.49-2.32,4.44-4.1,8.14-5.4,7.85-.53-.12-.82-.87-1-1.5l.45,8.42Z" opacity=".35"></path><path fill="url(#g)" d="M182.26,278.57l-2.88-.87.07-.81,2.91,1-.72-3h.84l.63,3,2.38-1,.46.81-2.48.93,2.35,2.38-.57.51L183,279l-1.08,2.45-.8-.49Z"></path><path fill="url(#h)" d="M192.52,278.57l-2.89-.87.07-.81,2.92,1-.73-3h.84l.64,3,2.38-1,.45.81-2.47.93,2.35,2.38-.57.51-2.3-2.47-1.09,2.45-.8-.49Z"></path><path fill="url(#i)" d="M202.41,278.57l-2.88-.87.07-.81,2.91,1-.72-3h.84l.63,3,2.38-1,.46.81-2.48.93L206,281l-.57.51L203.1,279,202,281.49l-.8-.49Z"></path><path fill="url(#j)" d="M212.25,278.57l-2.89-.87.07-.81,2.92,1-.73-3h.84l.63,3,2.39-1,.45.81-2.48.93L215.8,281l-.56.51-2.3-2.47-1.09,2.45-.8-.49Z"></path><path fill="url(#k)" d="M222.14,278.57l-2.88-.87.07-.81,2.91,1-.72-3h.84l.63,3,2.38-1,.46.81-2.48.93L225.7,281l-.57.51-2.3-2.47-1.08,2.45L221,281Z"></path><path fill="url(#l)" d="M299.65,325.41q-7.92-45-15.83-90c5-3.61,34.07-24.07,73.4-16.91,36,6.57,55.57,31.78,59.72,37.42q-19.06,57.21-38.14,114.42Z"></path><path fill="#3c76bb" d="M377.06,373.26H369q-4.29-26.25-8.6-52.52h6.38a4.14,4.14,0,0,1,4.05,3.22l10.29,44.19A4.17,4.17,0,0,1,377.06,373.26Z"></path><path fill="url(#m)" d="M374.45,373.26h-65a3.83,3.83,0,0,1-3.74-3l-10.45-44.84a3.84,3.84,0,0,1,3.74-4.71h65a3.83,3.83,0,0,1,3.73,3l10.45,44.84A3.84,3.84,0,0,1,374.45,373.26Z"></path><path fill="url(#n)" d="M422.5,388.38c1.63-3.57.08-7.19-.58-8.73a19.77,19.77,0,0,0-2.43-3.78,71.27,71.27,0,0,0-8.63-9.8c-1.39-1.31-2.46-2.23-3.33-3,0,0-21.76-18.55-23.75-23.3a20.55,20.55,0,0,0-1.55-3,17,17,0,0,0-1-1.4c-1.8-2.38-3.11-3-4.49-4.77-2.31-2.9-2.12-5.46-3.59-5.58a1.83,1.83,0,0,0-1.36.59c-.85.93-.24,3,1,7.23,1.13,3.83,1.72,5.54.81,7a3.85,3.85,0,0,1-1.17,1.17c-1.3.91-2.93,1.13-5.6.72a27.35,27.35,0,0,1-5.92-1.66c-6.66-2.48-9.57-4-10.45-3a1.23,1.23,0,0,0-.24.84c0,1.93,5.79,3.7,9.38,6.61.58.47,1.5,1.27,1.31,1.72a.54.54,0,0,1-.4.27c-1.88.5-10.44-3.6-12.21-2.29a.58.58,0,0,0-.22.27c-.08.24-.07,1,4.18,3.59,2.65,1.64,7,3.46,7,4.6a.5.5,0,0,1,0,.22c-.3.58-3.88-.4-6.32-.84-4.36-.79-5.46-.67-5.79-.12a.72.72,0,0,0-.1.34c0,.61.73,1.4,3.78,2.5a35.53,35.53,0,0,0,8.63,1.92,51.07,51.07,0,0,0,8.64,0c2.6-.18,4.75-.48,6.16-.68,5-.72,5.41-1.15,6.74-1.08,3.62.18,6.3,3.65,9.36,8.27,6,9.12,13.31,22.4,19.79,28.34a7,7,0,0,0,3.69,1.88C417.1,394,421,391.73,422.5,388.38Z"></path><path fill="url(#o)" d="M259.25,392.7c-1.64-3.58-.08-7.19.58-8.73a19.77,19.77,0,0,1,2.43-3.78,70.66,70.66,0,0,1,8.63-9.8c1.39-1.31,2.46-2.23,3.33-3,0,0,21.76-18.56,23.75-23.3a19.84,19.84,0,0,1,1.55-3c.28-.44.6-.91,1-1.4,1.8-2.37,3.11-3,4.49-4.76,2.31-2.9,2.11-5.46,3.59-5.59a1.87,1.87,0,0,1,1.36.59c.85.93.24,3.05-1,7.24-1.12,3.83-1.71,5.54-.8,7a3.85,3.85,0,0,0,1.17,1.17c1.3.9,2.93,1.12,5.6.72a27.26,27.26,0,0,0,5.91-1.66c6.67-2.49,9.58-4,10.46-3a1.23,1.23,0,0,1,.24.84c0,1.93-5.79,3.7-9.38,6.61-.58.47-1.51,1.27-1.32,1.72a.58.58,0,0,0,.41.27c1.88.5,10.43-3.6,12.21-2.29a.5.5,0,0,1,.22.27c.08.24.07,1-4.18,3.59-2.65,1.64-7,3.46-7,4.59a.41.41,0,0,0,0,.23c.3.57,3.88-.4,6.32-.85,4.36-.78,5.46-.66,5.79-.11a.86.86,0,0,1,.1.34c0,.61-.73,1.4-3.78,2.5a35.62,35.62,0,0,1-8.63,1.92,51.07,51.07,0,0,1-8.64,0c-2.6-.18-4.76-.49-6.16-.69-5-.71-5.41-1.14-6.74-1.08-3.62.18-6.3,3.66-9.36,8.28-6,9.11-13.31,22.39-19.79,28.33a7.09,7.09,0,0,1-3.69,1.89C264.65,398.32,260.79,396.05,259.25,392.7Z"></path><path fill="#171d4c" d="M289.15,378h34a2.95,2.95,0,0,1,2.95,2.95v3.12a0,0,0,0,1,0,0h-37a0,0,0,0,1,0,0V378A0,0,0,0,1,289.15,378Z"></path><path fill="#171d4c" d="M299.27,383H208.78l-15.05-60.31h0a8.93,8.93,0,0,1,5.31-1.76h80.12a4.87,4.87,0,0,1,4.7,3.63Z"></path><path fill="url(#p)" d="M291.2,384.06H210.06a4.52,4.52,0,0,1-4.37-3.37l-14-53a4.52,4.52,0,0,1,4.37-5.68h81.14a4.53,4.53,0,0,1,4.37,3.37l14,53A4.52,4.52,0,0,1,291.2,384.06Z"></path><ellipse cx="240.5" cy="353.04" fill="#fff" rx="6.84" ry="10.31" transform="rotate(-13.18 240.55 353.125)"></ellipse></svg>